{
  "accessors": [
    {
      "bufferView": 0,
      "byteOffset": 0,
      "componentType": 5123,
      "count": 8124,
      "type": "SCALAR",
      "max": [8123],
      "min": [0]
    },
    {
      "bufferView": 1,
      "byteOffset": 0,
      "componentType": 5126,
      "count": 8124,
      "type": "VEC3",
      "max": [609.7047729492188, 619.1610107421875, 182.39639282226562],
      "min": [-648.0228881835938, -582.2390747070312, -1028.68701171875],
      "name": "POSITION"
    },
    {
      "bufferView": 1,
      "byteOffset": 12,
      "componentType": 5126,
      "count": 8124,
      "type": "VEC3",
      "max": [0.9798317551612854, 0.999985933303833, 0.9999969005584717],
      "min": [-0.999910295009613, -0.9943233132362366, -0.9992911219596863],
      "name": "NORMAL"
    },
    {
      "bufferView": 1,
      "byteOffset": 24,
      "componentType": 5126,
      "count": 8124,
      "type": "VEC2",
      "max": [1, 1],
      "min": [0, 0],
      "name": "TEXCOORD_0"
    }
  ],
  "asset": { "generator": "Aspose.3D 24.4.1", "version": "2.0" },
  "buffers": [
    {
      "uri": "data:application/octet-stream;base64,",
      "byteLength": 276224
    }
  ],
  "bufferViews": [
    { "buffer": 0, "byteOffset": 0, "byteLength": 16248, "target": 34963 },
    { "buffer": 0, "byteOffset": 16252, "byteLength": 259968, "byteStride": 32, "target": 34962 }
  ],
  "meshes": [
    {
      "primitives": [
        { "attributes": { "POSITION": 1, "NORMAL": 2, "TEXCOORD_0": 3 }, "indices": 0, "mode": 4 }
      ],
      "name": ""
    }
  ],
  "nodes": [
    {
      "matrix": [
        1.8514309999999998, 0, 0, 0, 0, 1.0375207682376376e-16, -1.6944, 0, 0, 1,
        6.123233995736766e-17, 0, 0, 0, 0, 1
      ],
      "mesh": 0,
      "name": "Rectangle001"
    }
  ],
  "scene": 0,
  "scenes": [{ "nodes": [0] }]
}
